<?xml version="1.0" encoding="UTF-8"?>
<svg version="1.1" viewBox="0 0 1866.7 1306.7" xmlns="http://www.w3.org/2000/svg">
  <defs>
    <clipPath id="b">
      <path d="m0 0v9800h14000v-5310l-1530 720-1960-940-672.4-40.15-2627.6 670.15-2180-230-2120 1960-1180-420-1730 1480v-7690"/>
    </clipPath>
    <linearGradient id="a" x2="1" gradientTransform="matrix(2e-7 -4140.8 -4140.8 -2e-7 7e3 10242)" gradientUnits="userSpaceOnUse">
      <stop stop-color="#365356" offset="0"/>
      <stop stop-color="#386a51" offset="1"/>
    </linearGradient>
  </defs>id="namedview4"
  pagecolor="#ffffff"
  bordercolor="#000000"
  borderopacity="0.25"
  inkscape:showpageshadow="2"
  inkscape:pageopacity="0.0"
  inkscape:pagecheckerboard="0"
  inkscape:deskcolor="#d1d1d1" />
  <g transform="matrix(1.3333 0 0 -1.3333 0 1306.7)">
    <g transform="scale(.1)">
      <g clip-path="url(#b)">
        <path d="m0 0v9800h14000v-5310l-1530 720-1960-940-672.4-40.15-2627.6 670.15-2180-230-2120 1960-1180-420-1730 1480v-7690" fill="url(#a)"/>
      </g>
      <path d="m4329.2 8253.9c-20-20-60-20-60-60 320-100 900 20 1260 0 380-40 800 20 1200 20 400-20 780-40 1180-20 260 20 980 40 1180-100-320-180-1040-120-1420-180-380-40-920-40-1300 60-240 60-320 140-580 140-180 0-380-20-540-40-380-40-760-140-1080 80 40 60 80 100 160 140" fill="#4b806d"/>
      <path d="m-630 8310c180 200 1640 80 1280-280 200 20 400 100 600 100 260 0 320-160 460-220 180-60 400-20 580-60s340-140 520-160c320-20 680-20 1020-20 220 0 840-60 980-220-380-260-1420-140-1860 20-380 120-380 180-760 100-260-60-560-40-840-40h-740c-280-20-360 40-620 100-220 40-720-60-860 180-80 160 40 340 180 400" fill="#4b806d"/>
      <path d="m14410 9060.9c-480 187.51-1440 242.19-2080 242.19-720 0-1440-23.43-2140-62.5-240-15.62-1e3 -15.62-1120-85.94 100 46.88-380 46.88-520 54.69-260 7.81-500 0-760-7.81-540-15.63-1160-23.44-1620-140.63-660-187.5 440-234.38 780-234.38 560 0 1140 46.88 1700 39.07-360-273.45 760-148.44 1100-125.01 200 15.63 620 93.76 800 70.32 80-7.81 160-78.13 260-93.75 140-31.25 320-23.44 460-23.44 560 0 1120 85.94 1680 70.31 640-23.44 1140-46.87 1800 0 160 15.63 300 31.25 460 39.07h-140" fill="#4b806d"/>
      <path d="m750 6803.3 72.988 37.23-126.33 129.92z" fill="#789554"/>
      <path d="m510 7156.7 7.758-2.22-7.758 7.98z" fill="#789554"/>
      <path d="m336.67 7416.7s-146.67 386.66-166.67 406.66 0-311.26 0-311.26l340-349.64v307.57l-173.33-53.33" fill="#789554"/>
      <path d="m6843.3 5236.7-54.08-446.67-205.92 420-33.33-573.33-406.31 346.66 126.31-286.66-333.33 203.33 53.33-361.84-234.03 251.84-379.3-326.67 46.66 326.67-428.22-206.13 23.41 360.21-181.85-214.08-40 293.33-357.97 50.38 104.63 136.29-333.33 80 153.33 173.33-273.33-39.32-40 436.81-81.21-257.49-98.79 257.49-167.88-297.49v446.56l-316.2 180.11-39.25 218.13-603.34-38.13v326.67l-236.39-210.13-236.94 190.13 160-420-188.33 180-78.34-246.67-163.74 306.67-229.86-272.53-239.73 385.86-153.81-251.27-92.86 351.27-193.51-33.33v300l-266.83-136.11 2789.7-2868.8 3263.7 353.15c6.4 245.29 14.82 490.16 17.49 735.79l-50.59 176.01" fill="#789554"/>
      <path d="m13830 7703.3-94.4-423.32-78.9 232.07-166.7-428.74v342.78l-220-641.37-160 388.17 73.3-356.24-220-6.67v-346.67l-253.3 203-226.7-425.28-66.6 395.62-121.7-313.34v376.18l-38.5-382.84s-208.5 471.31-241.5 504.28c-33 32.98 88.3-387.96 88.3-387.96l-99.8 233.34 11.5-269.66-120.6 246.66 35.6-210.34-577.7-351.75v159.81l-132.3-482.47-135.2 322.66v-402.91l-321.5 105 265.3-180-212.7 75v-195l-305.9 48.54 204.2-221.87-394.1-169.44 73.7 252.43s-265.4-196.32-265.4-31.82-71.7 128.83-71.7 128.83l-219.09-200v241.87l-174.28-275.2v275.2l-186.04-170.7-47.29 317.16-397.37-215v505.67l-268.63-427.49-249 277.44 75-394.94-224.16 312.66-75.84-386.67-272.5 152.5-387.5-339.17 48.03 265.01-294.7-265.01v265.01l-245.46-294.36-47.87 156.02-162.58-345.92-33.5 116.58c-2.67-245.63-11.09-490.5-17.49-735.79l1971.1 213.29 4754.1 1280.8 308.4 1693.1-80 191.25" fill="#94b76d"/>
      <path d="m517.76 7154.4 178.9-183.97-46.656 146.19z" fill="#789554"/>
      <path d="m8658.1 5735.6 261.15 1151.6-130.58 1348.2 130.58 938.6-43.27-1044.1 200.77-1262.5-246.04-1189" fill="#94b76d"/>
      <path d="m8859 7508.5-233.48 389.58 233.48-194.79" fill="#94b76d"/>
      <path d="m9042.5 6702 278.56 533.2-288.46-342.31" fill="#94b76d"/>
      <path d="m10977 5361.2-260.9 1151.6-699.2 1160.1-286.9 903.16 411.2-960.68 725.5-1052.5 290.7-1178.8" fill="#94b76d"/>
      <path d="m10394 7047.5-378.6 250.82 294.6-75.07" fill="#94b76d"/>
      <path d="m10907 6398.9 21.5 601.2-112.7-433.24" fill="#94b76d"/>
      <path d="m12358 6198.1-196.6 1164.3 205.4 1338.8-78.2 944.41-14.9-1044.9-270.7-1249.4 179.5-1200.8" fill="#94b76d"/>
      <path d="m12256 7979.5 553.5 676.51-542.6-482.02" fill="#94b76d"/>
      <path d="m12028 7184.4-676.2 975.54 696.7-785.5" fill="#94b76d"/>
      <path d="m13516 5680-196.7 1164.3 205.4 1338.8-78.1 944.41-14.9-1044.9-270.7-1249.4 179.5-1200.8" fill="#94b76d"/>
      <path d="m13414 7461.4 553.5 676.51-542.7-482.02" fill="#94b76d"/>
      <path d="m13186 6666.3-676.1 975.54 696.6-785.5" fill="#94b76d"/>
      <path d="m6570 4538.2-580 951.84 373.44 1436.6v1017.4l119.99-973.94-263.43-1490 660-800" fill="#789554"/>
      <path d="m4311.9 6864-541.87 726 560-500" fill="#789554"/>
      <path d="m2790.1 8160-1030.1 1120-100 340 240-350 923.33-880" fill="#789554"/>
      <path d="m2923.8 7690 726.23 580 318.79-140-308.79 30-836.67-730" fill="#789554"/>
      <path d="m4010 5424 320 1121-120 2111 120 683.96-50-838.67 220-2011.3-320-1200" fill="#789554"/>
      <path d="m251.24 6864 239.99 826 302.48 2110h-105.62l-318.09-1970-260-730" fill="#789554"/>
      <path d="m2231.1 6189.5 479.98 1322.6 278.88 2287.9h156.1l-254.99-2420-389.98-1234.3" fill="#789554"/>
      <path d="m6433.4 4818.1 2256.6 1011.9 1760-620 1280 1300h1080l1190 1300v-4180l-6550-583.31" fill="#94b76d"/>
      <path d="m9930.5 5393-334.38 638.76-661.57 513.25s695.67-325.78 725.41-355.52 360-449.48 360-449.48" fill="#264821"/>
      <path d="m4918.8 6735.2 729.92 809.78 494.97 373.36-416.7-443.92-758.87-938.82" fill="#142e1e"/>
      <path d="m10128 3971.7 88.3 2238.3-486.7 1733.9 243.34-1793.9-135.73-2400.7" fill="#264821"/>
      <path d="m1089.8 7512.1 804.92 989.26 630.61-191.33 464.65 1490h-116.16l-394.13-1298.7-584.97 248.67-774.32-854.54" fill="#142e1e"/>
      <path d="m9837.6 4229.8-2627.6 670.15-2180-230-2120 1960-1180-420-1730 1480v-4700l8515-1100 1322.6 2339.8" fill="#789554"/>
      <path d="m5050 2930 210 500 210-383.31 110 473.73 175.97-295.21 266.65 219.22 67.38 150.57 273.44-332.5-128.44 372.88 220-247.32-20 247.32s87.5-62.88 105-80.38 85 165 85 165l70-150 55 179.31 35-139.31 142.42 275 32.58-185 215 271.72 35.89-222.41 104.11 222.41 240-116.72-145 153.43 195-63.43 360 135 165 189.65v-261.22l155 281.57-20-230.86 130 284.98v-309.12l120 170 114.35-121.18 800.65 231.18 166.16-159.01 91.34 289.01 239.09-385.86-161.59 479.02 269.4-458.16 167.9 295v-205l152.7 174.12-64.2-184.12 244.2 184.12 43.5-179.12 240.7 375 120.8-295 88.6 495 226.4-243.56-35 213.56 140-65-45 145 340-100-135 210 260-110 115 375 35-315 30 260 43.5-350 131.5 405 375-183.91 120 228.91 40-190 125 80 95-240 271.2 270-116.2-300 225 70v-160l254.9 15 25.1-135 185.6 150 33.2-171.22 96.2 91.22-60-260 130 108.16v-123.16l35 155" fill="#264821"/>
      <path d="m4330 2990 440 2220v2440.7l280 1005.4v-966.04l-131.2-2480-228.8-2540" fill="#142e1e"/>
      <path d="m50 4900-50 223.33 243.33-460-80 460 180.88-276.89 52.644 183.91 173.14 132.98-26.82-373.33s-173.18-506.67 93.488-126.67c266.66 380 300.92 426.67 300.92 426.67l-107.59-300-36.285-120 143.87 8.11 192.41 164.56-109.17-188.17s251.25-211.74 283.54-211.74c32.3 0 318.96 95.4 318.96 95.4v-301.49l416.58 73.33-173.74-235.88 103.83-257.45 213.33 200-40-540s48.38 27.24 87.81 66.66c39.43 39.43 205.53 213.34 205.53 213.34l53.33-236.25 146.67 142.91c40 0 133.33-106.66 133.33-166.66s53.33-240 53.33-53.34c0 186.67-18.43 186.67 0 186.67s280-225.04 280-269.19c0-44.14 225.3-23.52 248.82 0s177.85 102.52 177.85 102.52v-173.33l340 166.67s90.42 34.44 60-46.67-60-166.67-60-166.67l410 93.34v-93.34c0-33.33 220-196.64 220-196.64l338.45 202.41s18.22 220.9 124.88-12.43l106.67-233.34 240-273.33 221.25-106.67 32.08 46.67h301.98l31.36-172.06 400 276.37-63.75-167.27 200.45 62.96v-66.67l143.3 13.34 73.33-40-215-78.73-2938.3 276.37" fill="#142e1e"/>
      <path d="m2823.3 3520.4 556.58 3309.6-278.29 2200 362.09 770h406.29l-490.09-830 250.09-2020-283.33-3660" fill="#142e1e"/>
      <path d="m688.09 5424 1643 1410.3 980.01 368.37-980.01-203.67-430.89-261.08-1212.1-877.09" fill="#142e1e"/>
      <path d="m4647.6 3004.5 3518 1125.5 2344.5 140 1960 940 1530-720v-3580l-10970-140 1617.6 2234.5" fill="#264821"/>
      <path d="m0 4944.1 1586.2-449.97 569.98-854.96 1769.9-314.99 1184.9-524.97 1816.4-311.12-3391.3-1338.8h-3536.1v3794.8" fill="#142e1e"/>
      <path d="m606.64 1921.6-236.64 3506.7 720 4371.7h440l-841.91-4376 361.91-3502.4" fill="#142e1e"/>
      <path d="m2331.1 1863.6 5041.7 684.98h2591.6l1732.4 591.55h1197.1l493 380.28 613.1-225.35v-3295.1h-11120l-548.78 1863.6" fill="#152518"/>
      <path d="m9090.5 759.51 1322.6 188.05 973.9-58.996 1316.2 120.45 908.3-15.03 388.5 59.26v-147.47l-4909.5-146.26" fill="#213b1f"/>
      <path d="m6510.2 1122.3 1224.2 298.85 920.25 23.52 1224.7 231.03 854.51 61.74 1033.5 264.09 1450.7-61.86-6707.9-817.37" fill="#213b1f"/>
      <path d="m10076 2432-3075.7 65.94 372.82 50.65h2591.6l1765.6 591.55h1163.9l493 380.28 613.1-225.35-600 134.93-430-383.31-1250 53.31-1644.3-668" fill="#35512e"/>
      <path d="m4798 1645.2 693.21 215.57 531.37-37.44 696.93 148.27 491.35 4.81 584.65 193.67 842.67-157.14-3840.2-367.74" fill="#213b1f"/>
      <path d="m0 1773.9 1330.6 323.95 802.82-161.97 1521.1-556.34 1605.6-84.51 3633.8-788.73 943.66-506.34h-9837.6v1773.9" fill="#091313"/>
      <path d="m937.59 0 510.05 3046.7-255.03 2485.2 1035.1 4268.1h450.05l-1110.1-4371.7 2040.2 1123.6 480.05 900.09-270.03-1140.1 1560.2-30 1622-853.61-1679 655.7-1964.9-90-1709.9-784.04 284.99-2220-404.98-2990" fill="#091313"/>
      <path d="m1192.6 5531.9-491.39 1197.1-701.22 689.97v524.97l839-971.69 537.19-1008.2" fill="#091313"/>
      <path d="m1597.8 7202.7-221.62 1027.3-688.1 380-688.09 1190h490l447.59-1030 438.6-180-186.19 560 620.48-1070.4" fill="#091313"/>
      <path d="m2587.7 1769.7-256.65 93.87 4668.9 634.33-4412.3-728.2" fill="#35512e"/>
      <path d="m2530 1760.2-198.92 103.4 256.65-93.87-57.73-9.53" fill="#2d412c"/>
      <path d="m3870 1310 1048.8 2100 131.2 2018.3 620 2515.6-340-2515.6 15.15-2200.6-575.15-2178.8" fill="#091313"/>
      <path d="M 4601.32,2774.31 3968.79,3750 2770,4496.44 3968.79,4010 4770,3112.05" fill="#091313"/>
      <path d="m5341.4 3774.4 744.57 1169.7h1424.9l-1084.8-154.09-1210.1-1615.8" fill="#091313"/>
      <path d="m7966.4 6189.5 263.64 490.52 780 522.66 420-119.33-570 296.67-765.8-595.26-230.84-388.07" fill="#264821"/>
      <path d="m5756 4059.1h944.95l509.97-538.72-283.47 598.71-886.47 377.31" fill="#091313"/>
      <path d="m7e3 770 1515 2404.2 283.37 2254.2-632.83 2083.7 1022.9-2083.7-360.04-2381.6-960.09-2615.3" fill="#091313"/>
      <path d="m7360.9 3635.4 502.47 1474.6-352.48 1466.2 654.66 2079.8-302.18-1898 302.18-1668-118.23-1240.8" fill="#264821"/>
      <path d="m8934.6 3749.3 1215.4 747.13 1320-226.44-1253.3 520-1282.1-520.35" fill="#091313"/>
      <path d="m9596.2 4538.2 1064.5 885.85-444-689.91" fill="#091313"/>
      <path d="m8047.3 2432-221.45 1317.3-464.97 594.81 686.42-494.97 318.53-1074.8" fill="#091313"/>
      <path d="m9054.2 5701.7 541.93 1036.2-487.62-1837.9" fill="#091313"/>
      <path d="M 736.008,7650.66 540,8100 0,8501.33 540,8350 793.715,8001.04" fill="#142e1e"/>
      <path d="m4636.8 4538.2-306.84 442.93-460 368.91 520-200 300-470" fill="#142e1e"/>
      <path d="m13090 4790-340 2060 520 2950-760-2930 240-2180" fill="#264821"/>
      <path d="m11930 4690-460 2555-960 1411 710-1453.4 530-2706.2" fill="#264821"/>
      <path d="m12890 6001.8 500.6 574.48 345-31.24-330-231.66-430.7-826.09" fill="#264821"/>
      <path d="m12676 7512.1-216.5 527.93-680 370 800-170 230-550" fill="#264821"/>
      <path d="m12510 6870-670 642.07-410 177.93 640-120 530-614.01" fill="#264821"/>
      <path d="m11547 5531.9-721.5 499.88-315.7-249.94 286.7 448.19 713.3-507.98" fill="#264821"/>
      <path d="m11572 6678.2 208 405.1 436.7-325.33-393.4 122.78-251.3-484.11" fill="#264821"/>
      <path d="m11220 7340-610 250-481.6 510 381.6-670 790-270" fill="#264821"/>
      <path d="m10128 5819 334.9 577.72 565.3 26.66-658.6 136.67-241.6-370.52" fill="#264821"/>
      <path d="m7678 5880.9-528.03 432.4-716.63-263.34 494.09 346.67-347.46 53.33 347.46 95 750.57-195" fill="#264821"/>
      <path d="m4330 7943.9 320 712.1 820 233.96-900-140-290-590.01" fill="#789554"/>
      <path d="m6442.4 6737.9 557.6 642.09-516.57-380" fill="#789554"/>
      <path d="m6143.7 6081.2-283.69 703.5 325.24-543.69" fill="#789554"/>
      <path d="m9430 1537.6 2.32 0.31 74.35 208.74-32.61-203.19 375.17 49.96-212.56 153.23 258.2-138.24 139.53 126.42-224.4 25.36 204.4 1.35-396.02 139.66-51.71-47.89 10.8 54.02-424.9-38.69 174.93-48.66-222.53 25.58-114.97-96.56 315-16.52-161.67-129.88 286.67-65" fill="#789554"/>
      <path d="m12633 493.86-3.5 0.461-111.1 311.8 48.8-303.5-560.5 74.621 317.6 228.88-385.7-206.48-208.4 188.83 335.1 37.89-305.3 2.02 591.6 208.6 77.2-71.519-16.1 80.679 634.7-57.8-261.3-72.68 332.4 38.211 171.7-144.23-470.5-24.68 241.5-194-428.2-97.102" fill="#789554"/>
      <path d="m9687.5 1430s412.5-37.08 475 330.21c0 0 72.5-422.71-475-330.21" fill="#789554"/>
      <path d="m8889.2 1632.4s-27.5 180 147.5 275c0 0-250-22.5-147.5-275" fill="#789554"/>
      <path d="m9478.3 2e3s150 20 315-70c0 0-150 148.33-315 70" fill="#789554"/>
      <path d="m10217 1503.3s86.7 163.34 0 320c0 0 166.7-183.33 0-320" fill="#789554"/>
      <path d="m8847.5 1537.6s-90 82.8-47.5 222.59c0 0-122.5-122.71 47.5-232.71" fill="#789554"/>
      <path d="m12263 331.62s-624-56.09-718.5 499.51c0 0-109.7-639.44 718.5-499.51" fill="#789554"/>
      <path d="m13470 637.71s41.6 272.29-223.1 415.99c0 0 378.1-34.03 223.1-415.99" fill="#789554"/>
      <path d="m12579 1193.9s-226.9 30.25-476.5-105.89c0 0 226.9 224.38 476.5 105.89" fill="#789554"/>
      <path d="m11462 442.55s-131.1 247.07 0 484.06c0 0-252.1-277.32 0-484.06" fill="#789554"/>
      <path d="m13533 494.41s136.1 125.26 71.8 336.72c0 0 185.4-185.63-71.8-352.02" fill="#789554"/>
      <path d="m25 1705v185l285-185-55 392.89 268.69-196.45 56.094 418.21 210.22-398.01s-35-66.64 0-66.64 147.59 410 147.59 410l12.414-235s120-210 145-235 75 385 75 385 60 155 60-5 92.39-397.18 110-414.79c17.61-17.6 100 252.11 100 252.11s50-107.32 50-167.32 420 45 420 45l270 207.89s29.83-39.61-7.59-176.25c-37.41-136.64-62.41-216.64-62.41-216.64l290 245s103.37 23.44 103.37-62.98-103.37-252.02-103.37-252.02l750 100s-136.14-100-165-100-161.67-95-161.67-95l506.67 220.21-85-275.21s125-325 180-270 125 255 125 255l100-290s85 280 85 305 75 320 75 145v-310l130 325.21 180-385.21 678.03-80 331.97 375s85.99-70 85.99-90-30.99-285-30.99-285l510 220s-135-295-150-310l-15-15 795 47.33-40-172.33h355l210 199.28s30-194.28 30-244.28 955-65 955-65l28.36-109.97 111.64-185.03 275 180v-225l388.22 240 41.78-280 585-115s213.33 45 213.33 20-173.33-225-173.33-225l207.18-30 252.82 30-55-140" fill="#091313"/>
      <path d="m151.45 7358.4c41.703-228.42 45.645-460.99 72.367-691.2 19.004-163.73 48.332-324.21 131.09-468.33 42.18-73.46 108.29-180.58 198.31-200.4 109.02-24 97.23 188.36 95.332 243.13-12.367 5.6-24.735 11.2-37.102 16.8 35.516-320.91 65.121-642.71 130.46-959.34 62.028-300.61 154.58-618.72 356.51-857.44 5.06-5.99 17.11-18.96 26.24-11.87 94.07 73.05 155.81 181.59 205.05 287.95 46.36 100.12 84.08 209.33 98.79 319.04 2.36 17.61-33.74 50.82-37 26.52-14.44-107.7-51.79-212.28-96.21-310.96-46.87-104.1-108.5-211.03-199.95-282.05 8.75-3.95 17.49-7.91 26.24-11.87-200.61 237.17-287.91 554.07-348.44 852.58-62.278 307.13-90.161 619.58-124.59 930.64-1.899 17.16-38.145 46.94-37.102 16.8 1.571-45.46 12.016-253.89-87.871-211.21-80.605 34.43-136.07 146.33-171.84 219.99-71.234 146.73-85.609 319.13-100.94 479.22-19.035 198.74-26.317 398.41-62.246 595.2-3.168 17.37-42.274 45.12-37.102 16.8" fill="#091313"/>
      <path d="m2588.5 5759c-33.83-153.07-57.94-311.28-48.78-468.38 8.48-145.27 65.27-314.76 236.33-320.46 131.57-4.38 212.96 137.89 255.48 240.9 62.71 151.95 87.46 318.13 156.49 467.44 6.8 14.7 14.67 28.85 23.46 42.44-14.42-7.75-28.84-15.51-43.26-23.26 29.12-134.26 41.29-271.08 83.58-402.5 38.71-120.31 118.29-261.04 261.57-263.52 101.12-1.75 164.72 96.13 198.66 177.33 51.9 124.17 79.43 283.08 194.68 367.32-12.83-6.21-25.66-12.42-38.49-18.63 38.65-115 84.75-223.78 160-320 4-5.12 43.14 17.49 43.54 24.58 4.62 81.66 74.11 140.29 80 220-14.51-8.19-29.03-16.39-43.54-24.58 91.19-103.08 218.09-229.71 368.75-215.34 102.51 9.77 190.98 87.5 250.9 165.51 90.96 118.42 147.27 263.54 200.29 401.75 55.05 143.5 102.35 290.15 163.32 431.34-0.95-2.21-37.78-9.88-42.98-21.94-106.79-247.28-171.96-513.82-307.59-748.24-53.6-92.65-127-200.89-244.45-204.3-139.66-4.04-260.09 120.16-344.7 215.8-4.58 5.18-43.02-17.49-43.54-24.58-5.86-79.25-75.39-138.48-80-220 14.51 8.19 29.03 16.39 43.54 24.58-75.24 96.22-121.35 205-160 320-1.68 4.99-35.68-16.58-38.49-18.63-94.83-69.31-133.99-184.97-172.12-291.19-18.52-51.58-36.82-103.61-63.83-151.49-12.03-21.34-30.39-53.02-55.13-60.3-26.46-7.8-55.57-2.37-81.44 4.72-124.84 34.18-182.52 175.73-215.62 287.44-35.82 120.9-46.74 246.64-73.37 369.45-0.88 4.07-40.03-18.26-43.26-23.26-74.13-114.54-97.31-264.52-138.16-392.81-23.07-72.46-49.16-144.77-86.99-210.99-35.98-62.98-79.63-109.8-156.82-96.38-160.5 27.91-197.9 199.08-204.38 337.7-6.96 148.72 17.33 299.6 49.33 444.42-0.01-0.05-40.45-10.47-42.98-21.94" fill="#091313"/>
      <path d="m3485.4 4114.4c23.91-113.34 26.79-229.04 33.56-344.29 5.09-86.7 10.76-176.1 40.86-258.21 41.19-112.36 98.2-220.75 164.31-320.32 55.34-83.34 126.18-176.3 227.99-201.99 112.14-28.29 168.63 61.64 202.48 155.91-16.4 2.97-32.8 5.93-49.2 8.9 45.34-109.29 65.78-226.93 101.02-339.53 28.19-90.09 71.53-172.93 127.63-248.65 41.16-55.54 93.48-121.93 160.6-146.81 50.12-18.58 90.92-11.48 99.95 46.09 1.19 7.58-48.11 15.83-49.2 8.9-3.03-19.32-7.96-45.47-30.33-50.96 12.52-2.53 12.32-1.23-0.59 3.89-6.65 3.79-13.05 7.99-19.18 12.59-13.58 9.79-25.83 21.42-37.88 32.97-48.95 46.92-90.22 103.33-125.3 161.13-95.6 157.53-107.98 343.85-177.52 511.48-3.14 7.56-46.24 17.16-49.2 8.9-17.93-49.94-40.28-102.21-82.58-136.44-35.55-28.77-67.38-21.28-102.81 2.28-85.64 56.93-146.04 156.91-196.69 243.75-49.82 85.42-94.3 176.28-125.24 270.36-27.11 82.44-27.26 177.67-32.01 263.57-5.71 103.13-10.09 206.22-31.47 307.58-2.5 11.84-49.51 10.37-49.2 8.9" fill="#091313"/>
      <path d="m5625.2 3848.9c54.41-305.69 56.93-619.58 167.83-913.83 41.42-109.89 111.54-244.44 239.89-265.17 131.13-21.17 204.65 110.4 246.6 212.89 56.74 138.6 87.21 287.48 122.58 432.49 28.49 116.82 51.22 262.24 126.98 359.84-14.13 2.73-28.26 5.45-42.39 8.18 50.92-100.06 177.95-308.54 296.47-157.74 45.24 57.55 68.39 132.21 89.6 201.2 24.15 78.53 41.94 158.85 61.76 238.53 6.89 27.73-42.19 37.25-49.1 9.48-31.27-125.79-55.77-257.38-113.65-374.36-16.61-33.57-47.71-91.71-93.23-83.97-68.74 11.69-118.92 128.51-145.29 180.32-6.98 13.72-30.99 22.86-42.39 8.18-87.57-112.82-112.77-276.64-145.54-411.79-39.3-162.05-70.89-338.24-156.54-483.66-28.08-47.68-69.58-95.29-128.6-97.86-58.39-2.54-106.08 39.37-139.65 82.4-98.81 126.68-133.05 307.12-162.56 460.83-37.92 197.47-48.06 398.69-83.23 596.3-4.88 27.42-54.73 26.87-49.54-2.26" fill="#091313"/>
      <path d="m9390 4143.6c-12.07-91.93-10.69-188.46 61.73-255.02 57.7-53.04 134.01-57.62 207.47-42.52 100.3 20.63 167.85 73.66 240.18 142.73 31.17 29.78 62.97 59.8 101.52 79.83 73.8 38.38 117.7-28.8 150.2-87.68 2.7-4.79 33.6-34.23 38.6-26.22 29.2 46.69 93.1 57.97 140 80-12 7.63-24.1 15.26-36.2 22.88 88.1-98.89 144.2-219.94 220.3-327.36 39-54.98 112.5-140.4 188-102.96 60 29.73 94 113.38 120.1 169.75 29.4 63.62 47.7 132.06 64.5 199.87 33.6 135.6 62.4 279.36 63.6 419.6 0.1 12.15-40 32.49-40 27.1-1-121.24-24.7-243.24-50.4-361.31-27.5-126.85-63.5-254.57-136.5-363.55-22.2-33.16-54.1-69.21-97-69.75-47.8-0.6-85.1 73.51-106.9 107.29-62.5 96.68-115.7 199.73-192.7 286.22-6 6.7-25.7 27.85-36.2 22.88-46.2-21.64-111.2-33.89-140-80 12.8-8.74 25.7-17.48 38.6-26.22-36.1 65.4-94.6 151.42-178.7 153.36-77.77 1.79-147.17-91.54-198.33-138.28-71-64.87-162.52-102.37-259.2-104.56-54.84-1.25-94.61 17.89-114.61 70.51-20.96 55.16-15.56 119.24-8.06 176.31 1.45 11.07-39.1 33.96-40 27.1" fill="#091313"/>
      <path d="m883.3 8693.2c83.336-73.53 180.05-61.53 235.27 36.31 53.58 94.95 55.21 234.51-17.46 319.71-10.5 12.31-52.86 19.02-38.73-7.02 43.37-79.93 121.47-245.98 237.31-223.93 134.6 25.63 87.93 243.18 44.6 326.28-7.09 13.6-52.24 26.87-43.73 2.39 33.05-95.03 122.59-262.39 248.89-212.88 130.03 50.97 97.05 274.85 48.17 370.49-6.88 13.46-50.54 28.13-43.72 2.39 28.93-109.23 92.59-256.94 207.15-298.23 125.66-45.29 179.62 100.3 136.57 195.84-6.72 14.92-51.93 26.19-43.72 2.39 38.62-111.99 146.33-214.86 272.61-195.44 30 4.62 0.69 40.21-19.69 37.08-98.75-15.19-177.18 63.67-207.38 151.23-14.58 0.8-29.15 1.59-43.73 2.39 37.84-83.97-27.27-220.42-127.31-139.5-66.32 53.65-107.72 156.94-128.96 237.11-14.58 0.8-29.15 1.59-43.73 2.39 41.99-82.17 53.96-205.77 10.83-289.38-34.31-66.52-101.82-56.51-145.15-8.97-34.54 37.88-58.58 87.92-75.29 135.96-14.57 0.8-29.15 1.59-43.72 2.39 35.69-68.45 77.45-242.37-14.47-284.09-79.71-36.17-155.57 134.75-183.62 186.44-12.91-2.34-25.82-4.68-38.73-7.02 57.46-67.36 53.23-170.31 24.92-249.33-29.91-83.47-102.04-143.83-180.45-74.65-19.929 17.59-51.551 1.54-26.73-20.35" fill="#091313"/>
      <path d="m1317 8482.4c144.22-80.19 235.33 224.91 208.16 319.76-14.58-8.07-29.16-16.15-43.74-24.22 56.03-81.49 131.96-228.86 254.45-183.87 119.32 43.82 82.51 156.14 29.29 241.43-8.57 13.73-49.84-9.23-43.74-24.23 26.29-64.6 66.07-98.13 136.52-82.26 26.15 5.88 54.38 17.04 76.65 32 17.21 11.57 33.73 24.09 50.53 36.25 15.54 11.25 39.75 12.71 57.66 19.99 20.88 8.49 32.45 38.38 1.02 25.6-22.33-9.08-44.5-11.66-66.01-22.87-25.56-13.32-45-36.85-71.55-48.64-71.55-31.75-112.76-5.44-141.08 64.16-14.58-8.08-29.16-16.15-43.74-24.23 32.36-51.85 108.86-218.53-26.28-191.13-79.08 16.03-128.69 121.97-169.98 182.02-9.51 13.84-48.13-8.88-43.74-24.22 17.09-59.66-35.64-316.68-125.17-266.9-13.93 7.75-53.39-20.78-39.25-28.64" fill="#091313"/>
      <path d="m1476.7 8436.8c51.12-52.59 118.61-103.73 194.46-108.5 97.03-6.11 74.01 120.02 57.29 176.23-9.83 3.52-19.67 7.05-29.51 10.57 34.69-44.57 74.42-84.72 130.57-52.5 44.84 25.73 71.22 34.55 120.83 12.19 30.24-13.62 51.42-11.19 70.5 17.35 8.4 12.58-28.94 44.8-35.05 35.66-32.58-48.74-87.2 9.81-135.44-1.53-54.79-12.89-80.97-70.24-129.33-8.1-2.53 3.26-34.74 28.13-29.51 10.57 14.37-48.33 39.6-142.91-30-160.92-61.59-15.95-132.66 41.96-171.58 81.99-20.52 21.1-33.71 8.05-13.23-13.01" fill="#091313"/>
      <path d="m586.23 9403.5c42.121-115.41 161.61-316.41 314.46-271.48 155.84 45.8 199.88 249.39 139.73 384.48-4.22 9.5-38.22 36.43-34.2 27 50.12-117.46 168.66-208.93 296.6-221.16 48.38-4.62 103.33 6.7 132.63 48.59 38.32 54.78 4.87 134.03-21.69 185.57-7.09 3.16-14.18 6.32-21.27 9.47 65.28-71.43 183.73-174.81 288.2-133.95 122.53 47.92 57.3 200.86 11.19 281.44-7.95 3.59-15.9 7.18-23.86 10.77 52.83-59.92 104.22-121.39 168.47-169.64 38.47-28.88 142.53-80.89 169.26-11.62 9.79 25.38-2.23 57.21-11.27 81.05-6.06 15.97-14.61 31.15-23.03 45.96 5.03-8.85 31.27-20.23 45.61-27.23 77.05-37.64 178.86-65.68 256.96-17.4 4.71 2.91-25.21 41.85-34.73 35.97-91.91-56.83-215.35-7.21-298.63 44.24-7.38 4.56-10.67 2.09-5.9-5.69 35.15-57.29 71.58-160.12-33.74-151.46-90.85 7.47-160.39 111.26-215.73 174.02-3.47 3.94-35.07 30.36-23.86 10.77 38.68-67.61 87.53-173.07 24.41-240.64-84.5-90.47-224.7 15.47-285.02 81.47-1.72 1.88-27.34 21.25-21.26 9.47 44.91-87.16 60.01-205.77-63.47-223.59-110.93-16.01-232.57 55.58-275.67 156.59l-34.2 27c48.2-108.27 26.13-250.51-61.062-332.8-49.875-47.06-120.92-58.42-182.91-30.73-73.684 32.92-115.67 124.88-141.82 196.53-3.629 9.95-37.844 36.98-34.2 27" fill="#091313"/>
      <path d="m810.44 9522.9c234.32-549.55 681.95-959.9 996.62-1459.1 15.93-25.28 35.07-12.64 19.22 12.5-312.16 495.25-757.7 902.58-990.05 1447.5-9.004 21.12-39.02 30.12-25.786-0.92" fill="#091313"/>
      <path d="m1295.6 9635.2c82.84-299.72 240.05-571.14 338.74-865.15 81.9-243.99 72.28-524.3 202.42-750.99 5.56-9.69 46.24-29.26 39.83-18.1-64.16 111.76-89.96 240.87-113.87 366.11-25.58 133.94-48.4 266.57-91.91 396.2-96.83 288.44-251.76 554.07-333.06 848.22-3.7 13.39-43.45 28.42-42.15 23.71" fill="#091313"/>
      <path d="m1720.8 9680.8c174.9-253.84 218.23-585.2 211.04-887.07-3.1-129.89-29.2-258.9-39.56-388.31-9.12-114.04-12.99-240.62 41.85-344.62 8.07-15.32 56.69-16.9 45.09 5.09-58.7 111.34-45.41 251.96-34.21 372.7 11.8 127.19 36.44 253.85 36.13 381.9-0.73 298.18-42.29 614.38-215.25 865.4-9.8 14.23-58.79 14.79-45.09-5.09" fill="#091313"/>
      <path d="m1304.4 8762.7c27.87 136.95 25.45 276 30 415 0.85 26.02-48.11 17.67-48.86-5.32-4.55-139-2.14-278.05-30-415-5-24.56 44.3-17.1 48.86 5.32" fill="#091313"/>
      <path d="m1139.9 8925.3c9.12-211.13-20.67-423.06-30.91-633.77-10.81-222.48-52.34-442.82-39.09-666.23 0.99-16.74 41.67-44.05 40.28-20.62-12.85 216.78 24.3 431.63 38.03 647.41 13.74 216.04 41.33 436.04 31.97 652.59-0.72 16.77-41.3 44.2-40.28 20.62" fill="#091313"/>
      <path d="m1072.9 7472.8c-5.85-15.13-0.94 3.37 11.85-3.44-5.07 2.7-8.57 7.94-11.98 12.33-9.23 11.86-15.03 26.3-20.35 40.2-8.73 22.81-23.18 72.83 1.21 90.96 34.1 25.33 83.29-27.18 94.12-54.16 13.93-34.73 8.66-82.99-13.69-113.13-26.18-35.32-64.5 8.79-75.29 35.55-9.43 23.35-11.46 50.95-8.65 75.75 4.2 37.16 34.2 48.12 47.88 9.93 2.93-8.2 6.12-79.15-15.26-67.66-19 10.21-20.37 47.61-17.98 65.51 2 14.92 3.76 1.22 6.77-5.17 5.8-12.3 7.31-26.35 8.87-39.68 2.42-20.61 4.05-48.72-7.5-66.99 12.69 3.49 25.39 6.99 38.09 10.48-11.94 10.85-26.26 27.54-19.81 45.21 5.21 14.3 8.87-22.23 9.32-27.02 14.92 5.97 29.85 11.94 44.77 17.91-12.87 17.68-9.63 24.01-6.1 43.46-14.78-4.05-29.57-8.1-44.36-12.14 9.2-9.02 15.26-19.92 18.18-32.69 0-0.03-8.5-50.29 5.36-13.07 6.09-1.37 10.79-4.88 14.1-10.51 9.19-10.33 10.71-24.23 8.46-37.19 11.6 6.23 23.21 12.46 34.81 18.69-20.3 3.15-29.15 15.45-26.55 36.91-15.78-2.37-31.56-4.73-47.34-7.09 14.76-36.36-7.38-16.06-13.58 3.58-8.2 25.96-47.75 10.17-47.75-12.86v-5c14.92 5.97 29.85 11.94 44.77 17.91-69.12 92.7-141.52-56.45-144.76-117.91 16.355 2.38 32.715 4.76 49.07 7.14-3.941 48.22-26.898 159.08 50.745 144.25 24.51-4.68 42.81 34.95 15.4 43.07-49.11 14.56-96.59 15.61-147.33 11.11 5.214-13.02 10.425-26.04 15.636-39.06 37.078 20.59 75.473 22.34 116.29 14.88 17.06-3.12 40.57 21.27 24.95 36.52-33.89 33.08-68.738 62.13-114.55 76.55-3.012-14.3-6.024-28.59-9.032-42.89 45.422 11.48 50.907-17.08 67.732-51.73 12.62-25.99 31.82-44.5 59.94-52.16 11.44-3.12 28.1 0.52 32.82 13.13 26.99 71.98 69.41 106.95 148.14 100.58-1.13 14.15-2.26 28.29-3.39 42.44-63.89-28.63-205.53-103.71-117.12-184.6 12.08-11.05 27.3-9.74 38.94 1.54 43.99 42.62 103.32 28.65 155.61 11.91 3.01 14.3 6.02 28.59 9.03 42.89-67.41-9.58-213.61 25.85-207.89-85.57 1.52-29.49 41.43-19.11 48.67 1.37 6.07 17.16 6.21 12.79 21.66-1.83 11.17-10.57 20.26-23.45 29.1-35.93 14.87-20.99 28.85-44.74 36.9-69.33 14.48 7.88 28.96 15.75 43.44 23.63-42.28 58.79-89.48 127.84-170.51 127.84-13.74 0-31.34-9.31-29.26-25.75 5.44-42.94 12.33-84.68 26.33-125.72 15.47 6.19 30.95 12.39 46.42 18.58-13.83 39.36-32.57 70.7-72.53 86.6-15.03 5.99-30.18-4.79-34.81-18.69-6.67-20-13.34-40-20-60-9.68-29.02 39.6-30.39 48.26-4.4 6.67 20 13.34 40 20 60-11.6-6.23-23.21-12.46-34.81-18.69 28.76-11.45 38.04-36.55 47.47-63.4 9.48-26.99 55.64-8.46 46.42 18.58-12.78 37.47-18.72 75.19-23.67 114.28-9.75-8.58-19.5-17.17-29.26-25.75 67.41 0 104.79-63.91 139.49-112.16 15.05-20.92 51.12 0.18 43.44 23.63-21.28 65.03-135.81 224.53-182.34 92.91 16.22 0.46 32.44 0.92 48.67 1.37-2.79 54.26 125.51 29.22 162.11 34.43 20.95 2.98 34.1 34.87 9.03 42.89-76.52 24.5-152.84 31.55-214.39-28.09 12.98 0.52 25.96 1.03 38.94 1.54-56.95 52.1 52.38 97.26 92.88 115.4 20.17 9.04 22.74 40.33-3.39 42.44-99.16 8.02-167.1-36.7-201.86-129.42 10.94 4.38 21.88 8.75 32.82 13.13-37.11 10.11-43.28 53.46-61.99 82.37-19.94 30.83-58.506 31.79-90.338 23.74-19.024-4.81-35.813-34.46-9.032-42.89 38.465-12.11 66.965-35.64 95.45-63.45 8.32 12.17 16.63 24.35 24.95 36.52-54.962 10.04-104.99 1.94-153.71-25.12-22.793-12.66-6.16-40.99 15.636-39.06 42.633 3.77 81.375 3.35 122.67-8.89 5.13 14.36 10.26 28.71 15.4 43.07-123.67 23.62-116.01-113.15-109.26-195.75 2.5-30.61 47.656-19.6 49.07 7.14 1.102 20.82 9.344 41.09 17.965 59.73 8.85 19.15 20.32 45.1 37.27 22.36 14.2-19.04 44.77-2.88 44.77 17.91v5c-15.92-4.29-31.83-8.57-47.75-12.86 26.97-85.41 141.41-52.62 106.42 33.58-8.21 20.23-45.68 15.18-47.34-7.09-3.05-40.8 12.22-71.6 53.45-83.09 13.84-3.86 32.07 2.94 34.81 18.69 17.15 98.45-124.35 138.31-123.62 26.25 0.25-38.21 47.25-32.31 68.24-18.46 44 29.02 28.85 85.22 1.48 118.75-12.47 15.28-40.9 6.91-44.36-12.14-5.76-31.66-5.42-49.98 13.9-76.54 13.2-18.14 46.8-3.57 44.77 17.91-4.38 46.39-34.24 88.53-83.14 59.08-49.77-29.97-18.38-92.71 12.65-120.89 12.07-10.97 31.09-0.6 38.09 10.48 26.61 42.09 21.65 150.74-28.46 175.3-70.91 34.75-79.31-69.2-65.82-111.22 23.01-71.72 102.21-52.19 123.41 8.1 19.61 55.74-19.52 157.02-92.75 123.78-128-58.1-11.19-322.64 104.77-226.59 98.55 81.63 28.45 288.01-110.46 250.1-71.342-19.47-59.713-106.84-39.38-159.94 15.48-40.44 79.83-114.18 108.69-39.53 11.47 29.65-34.06 41.96-44.28 15.52" fill="#091313"/>
      <path d="m6991.5 6326c-0.75-165.98-32.19-331.99-18.69-498.14 3.37-41.45 13.8-109.09 70.1-104.73 25.08 1.95 43.27 21.34 58.45 39.53 36.06 43.2 61.62 96.28 86.78 146.16-12.66 0-25.31 0.01-37.96 0.01 40.93-27.15 69.11-72.06 94.75-112.82 37.26-59.26 68.56-122.33 98.62-185.46 52.81-110.89 98.82-224.85 144.39-338.84 5.86-14.67 41.57-22.46 47.12-3.95 73.36 244.26 27.31 507.03 105 749.96 6.58 20.59-41.65 33.69-48.37 12.66-77.69-242.93-31.64-505.71-105-749.97 15.71-1.31 31.42-2.63 47.13-3.94-48.81 122.09-98.57 243.81-155.64 362.32-47.02 97.65-102.46 228.07-196.57 290.49-8.09 5.37-31.65 12.51-37.95 0.01-22.2-44.01-45.26-87.74-73.35-128.33-7.74-11.19-16.31-21.76-25.66-31.64-4.86-5.13-21.35-11.46-11.53-13.39 9.02-1.77 2.24 2.36-0.81 9.53-4.5 10.54-6.08 22.65-7.86 33.88-4.71 29.79-5.24 60.31-5.53 90.4-1.4 144.48 20.73 288.01 21.39 432.32 0.09 20.29-48.7 28.26-48.81 3.94" fill="#264821"/>
      <path d="m10789 5975.4c136.5-207.28 51.7-461.35 35.3-688.89-10.2-142.51 21.9-317.79 168.5-379.94 94-39.84 142 123.72 162.1 183.61 43.7 130.51 67.5 266.84 111.3 397.29 10.1 30.02 21.5 66.88 45.6 88.96-14.3 7.99-28.5 15.99-42.8 23.99 57.6-96.15 28.7-264.29 145.7-319.05 135.8-63.57 150.6 190.45 136.9 266.44-2.1 11.47-42.8 23.29-42.6 22.61 13.5-75.19 9.8-258.1-93.1-270.72-9.8 2.34-11.1-0.34-4-8.04-4 4.56-7.5 9.47-10.6 14.73-6.1 9.63-10.5 20.38-15 30.83-12.3 28.94-20.6 59.75-28.9 90.03-13.3 48.41-19.6 106.92-45.8 150.56-3.7 6.11-36.3 29.96-42.9 23.98-30.2-27.69-42.1-77.22-53.9-114.78-20.4-64.86-36.1-131.18-53.2-196.95-17.8-68.86-36.3-137.72-60.3-204.74-17.3-48.34-37.9-101.66-75.5-138.15-12.8-12.44-28.7-20.32-46.7-20.37-16.9-0.05-8-1.86-20.1 9.83-14.3 13.81-25.9 30.22-37 46.6-60.5 89.33-61.1 201.08-52.5 304.71 18.3 220.98 94.6 463.71-37.9 664.85-7.7 11.75-40.2 19.02-42.6 22.61" fill="#264821"/>
      <path d="m13132 5900.9c29.6-44.44 29.2-113.56 33.9-164.71 7.7-84.01 11.2-168.37 17.2-252.5 5.5-76.76 12.3-154.02 29.4-229.22 10.7-47.44 28.1-98.52 70.9-125.99 40.8-26.21 91.9 3.81 119.5 35.31 41.7 47.5 52.9 119.1 60.2 179.38 19.7 164.66-1 331.08 3.9 496.26 1.4 48.25 0.8 114.3 33.2 153.92-11.5 2.5-23.1 4.99-34.6 7.49 22.8-25.59 40.5-50.29 70.3-68.36 5.6-3.39 20.1-7.08 24.3 0.87 35.8 67.37 38.7 146.86 38.5 221.62-0.3 84.32-10.5 168.46-20.9 252.01-2.5 20.28-47.4 40.51-44.1 14.16 9.3-74.52 17.5-149.09 20.3-224.19 2.8-75.61 3.8-163.48-32.7-232.14 8.2 0.3 16.3 0.59 24.4 0.88-21.6 13.06-33.5 33.43-49.7 51.63-7.2 8.07-25.3 18.86-34.7 7.49-31.9-39.02-34.3-97.83-37.3-145.8-5-80.27-0.7-161.16 1.3-241.46 2.2-85.59 3.7-171.45-3.9-256.83-5.7-64.79-17.1-139.59-61.5-190.2-12.4-14.14-40.9-35.57-61.3-31.07-18 3.96-26.8 34.37-32 48.84-25 69.48-29.9 147.07-36.2 220.04-7.3 85.3-11 170.86-17.3 256.23-4.7 62.77-8.6 128.56-27.8 188.95-3.7 11.76-8.8 23.48-15.7 33.76-12.6 18.95-55.8 20.87-37.6-6.37" fill="#264821"/>
      <path d="m4475.8 8489.5c32.73-194.49 75.72-390.63 169.27-565.95 5.76-10.8 26.35-24.38 35.22-9.74 66.11 109.14 55.05 264.35 61.73 386.82 4.99 91.43-2.38 294.68 111.91 327.45-11.12 10.5-22.23 20.99-33.34 31.49v-120c0-15.09 26.89-47.62 39.69-25.79 43.04 73.4 76.96 151.59 119.99 224.99 10.36 17.66-26.32 51.02-38.51 30.23-43.04-73.4-76.96-151.59-120-224.99 13.23-8.6 26.46-17.2 39.7-25.8v120c0 15.42-15.9 36.48-33.34 31.48-114.5-32.83-117.52-208.46-124.2-302.73-5.58-78.53-7.37-157.28-14.6-235.7-5.84-63.41-13.94-131.74-47.55-187.22 11.74-3.25 23.48-6.5 35.22-9.75-89.65 168.01-129.36 357.77-160.71 544-3.37 20.07-45.49 40.92-40.48 11.21" fill="#789554"/>
    </g>
  </g>
</svg>
